<?xml version="1.0" encoding="iso-8859-1"?>
<!-- Uploaded to: SVG Repo, www.svgrepo.com, Generator: SVG Repo Mixer Tools -->
<svg fill="#000000" height="800px" width="800px" version="1.1" id="Layer_1" xmlns="http://www.w3.org/2000/svg" xmlns:xlink="http://www.w3.org/1999/xlink" 
	 viewBox="0 0 512.008 512.008" xml:space="preserve">
<g>
	<g>
		<g>
			<path d="M505.751,475.588l-59.584-59.584l38.251-38.251c5.355-5.333,7.467-13.12,5.568-20.437
				c-1.899-7.317-7.531-13.077-14.805-15.147l-149.333-42.667c-7.36-2.133-15.445-0.064-20.928,5.419s-7.573,13.483-5.44,20.949
				l42.667,149.333c2.091,7.253,7.851,12.885,15.168,14.784c1.771,0.469,3.563,0.683,5.355,0.683c5.589,0,11.051-2.197,15.083-6.251
				l38.251-38.251l59.584,59.584c4.16,4.16,9.621,6.251,15.083,6.251s10.923-2.091,15.083-6.251
				C514.093,497.412,514.093,483.929,505.751,475.588z"/>
			<path d="M106.667,213.337c-11.797,0-21.333,9.557-21.333,21.333s9.536,21.333,21.333,21.333h64
				c11.797,0,21.333-9.557,21.333-21.333s-9.536-21.333-21.333-21.333H106.667z"/>
			<path d="M341.333,234.67c0-11.776-9.536-21.333-21.333-21.333h-64c-11.797,0-21.333,9.557-21.333,21.333
				s9.536,21.333,21.333,21.333h64C331.797,256.004,341.333,246.446,341.333,234.67z"/>
			<path d="M213.333,298.67H106.667c-11.797,0-21.333,9.557-21.333,21.333s9.536,21.333,21.333,21.333h106.667
				c11.797,0,21.333-9.557,21.333-21.333S225.131,298.67,213.333,298.67z"/>
			<path d="M170.667,426.67c11.797,0,21.333-9.557,21.333-21.333s-9.536-21.333-21.333-21.333h-64
				c-11.797,0-21.333,9.557-21.333,21.333s9.536,21.333,21.333,21.333H170.667z"/>
			<path d="M213.333,469.337H42.667V170.67h426.667v42.667c0,11.776,9.536,21.333,21.333,21.333S512,225.113,512,213.337v-64v-128
				c0-11.776-9.536-21.333-21.333-21.333H21.333C9.536,0.004,0,9.561,0,21.337v128V490.67c0,11.776,9.536,21.333,21.333,21.333h192
				c11.797,0,21.333-9.557,21.333-21.333S225.131,469.337,213.333,469.337z M213.333,64.004c11.776,0,21.333,9.557,21.333,21.333
				s-9.557,21.333-21.333,21.333S192,97.113,192,85.337S201.557,64.004,213.333,64.004z M149.333,64.004
				c11.776,0,21.333,9.557,21.333,21.333s-9.557,21.333-21.333,21.333S128,97.113,128,85.337S137.557,64.004,149.333,64.004z
				 M85.333,64.004c11.776,0,21.333,9.557,21.333,21.333s-9.557,21.333-21.333,21.333S64,97.113,64,85.337
				S73.557,64.004,85.333,64.004z"/>
		</g>
	</g>
</g>
</svg>